#!OML:ASF F:\VICON\USERDATA\INSTALL\rory3\rory3.ASF
:FULLY-SPECIFIED
:DEGREES
81
root 0.016132472216148885 17.81314841123092 49.94111665282827 -5.411845662203293 -3.8296741304395474 -1.4290711445419777
lfemur -14.348522590466512 -2.127543334892344 -19.790964915306972
ltibia 59.03445948333187
lfoot -11.850480312175627 -4.27640054071947
ltoes -7.989277978381109
rfemur -13.868335796335629 -2.366715244702521 24.861448416309194
rtibia 83.70160349637368
rfoot 0.25987895377588366 -2.1174161685342314
rtoes 28.98628829408593
lowerback nan 0.6245303349687827 0.12254642243513869
upperback 0.37300905861346645 1.5250643461612277 0.5770923492347755
thorax -5.926423569281998 0.49882340390033236 0.6989568106289616
lowerneck -14.592189644552322 -2.7285801867329793 -3.3129260705929005
upperneck 20.804509568895796 -3.1497719781947384 2.0575978090272016
head 9.066254210227301 -1.6507098470050365 0.8850219215510673
lclavicle -1.7432233908623988e-14 -2.891160190056582e-14
lhumerus -34.8296967657891 7.679821282115745 79.09725025471525
lradius 14.954118183923981
lwrist 2.8132141685697873
lhand -26.44503519992616 16.690628441897132
lfingers nan
lthumb 0.42508642003460473 46.91939493637357
rclavicle -1.7366452540198642e-14 -2.750357376738437e-14
rhumerus -28.652655754027116 -17.201486503880634 -81.35387045683395
rradius 27.067863608740577
rwrist 6.420031060212043
rhand -16.92301185358659 nan
rfingers nan
rthumb 9.006778419321119 -9.108430898048915
82
root 0.017303195233432933 17.795422242868344 50.7212054446226 -5.578566964067635 -3.388297432980587 -0.9751044945150422
lfemur -11.988441776596321 -2.2022294973079912 -20.631482564750232
ltibia 59.935170489510206
lfoot -13.461919971273764 -3.3240545420727634
ltoes -9.037242956412504
rfemur -17.431308102421145 -2.956298274373102 24.610351463005504
rtibia 81.8571013458305
rfoot -4.439370792239513 -0.5777623538682066
rtoes 25.837308366391795
lowerback nan 0.38593857146594857 -0.6215235302616167
upperback 0.829720359446472 1.0938645404666794 0.6187452879980712
thorax -5.292992905186163 0.28219256884343025 1.1723878625751822
lowerneck -15.857743725367987 -2.7414761425734686 -3.315106447453548
upperneck 20.933106565401765 -3.041945520682324 2.5123458313848426
head 9.262410313934165 -1.5731563258505845 1.0731449526759913
lclavicle -1.4205880340431775e-14 -1.8653506134972534e-14
lhumerus -32.08967693446334 6.421429457681432 79.25042969174538
lradius 16.43458715435188
lwrist 4.367144214000428
lhand -26.092454503689083 18.145569359203595
lfingers nan
lthumb 0.7171298780726683 48.35578541698861
rclavicle -1.426915861684263e-14 -1.752643204843389e-14
rhumerus -29.452103467156864 -18.22623541124841 -80.99438517541633
rradius 26.887993399812043
rwrist 6.527493235862214
rhand -16.368388995972083 nan
rfingers nan
rthumb 9.553255960722298 -10.242313568688445
83
root -0.004385396123773033 17.768601558985736 50.95227079732347 -4.92744705476515 -3.1574386419678655 -1.1888182468483093
lfemur -11.514626025404331 -1.7578455305688714 -20.338703947908147
ltibia 61.54153249791844
lfoot -14.624156295793288 -2.745292229261376
ltoes -7.541645183115557
rfemur -21.82625593696791 -2.6597726259578205 25.691547273556473
rtibia 77.60901539350517
rfoot -8.181948231728807 -0.134805551421457
rtoes 20.80521823195445
lowerback nan 0.207267377271435 -0.5411086032007699
upperback 0.6051024932760468 0.7922977325998692 0.9359633859437574
thorax -6.042223551063631 0.15785831684284168 1.4008727697899221
lowerneck -16.726934052157482 -2.5227198577761265 -2.8594936081639686
upperneck 20.845119790295424 -2.6820853980348858 2.3185670898405206
head 9.308414392334923 -1.4190525927980953 0.9498564152285482
lclavicle -2.567750274254926e-14 -1.8880662384629353e-14
lhumerus -29.778878225740552 3.4328197948481254 79.85600724827513
lradius 17.59236888283776
lwrist 6.954936427972246
lhand -26.47454248534223 19.939980959488132
lfingers nan
lthumb 0.261301648158792 49.96276233342011
rclavicle -2.5626520934259354e-14 -1.7574807684119842e-14
rhumerus -30.512633375988038 -18.39217384459685 -80.65911660820385
rradius 26.61020021072743
rwrist 6.8312398804788526
rhand -16.53051700289805 nan
rfingers nan
rthumb 9.442823210820023 -8.429192317138217
84
root -0.017324087986866243 17.753254965113417 51.23124043170284 -4.515112158899194 -2.267014276930201 0.19871265526214987
lfemur -9.419826008260857 -1.781171926485471 -22.122836069057655
ltibia 61.14724962247824
lfoot -15.749062641138178 -2.468377362887707
ltoes -7.215253943665427
rfemur -24.384821243820745 -3.339160156556177 24.12239371281088
rtibia 70.53034868575881
rfoot -10.955752949991552 -0.08618448591078387
rtoes 16.95403576595305
lowerback nan -0.1665044284849711 -1.967227478012331
upperback 0.42410412882289916 0.010330003887980443 0.6333072862223748
thorax -6.293297776046938 -0.14533468091174817 2.101623257046261
lowerneck -16.940834900484354 -2.566805193916138 -3.3012695689697185
upperneck 20.780102702728733 -2.737161933316072 2.5130793913638545
head 9.313703678868395 -1.4320820247892005 1.0772738077194033
lclavicle -2.3045906621322868e-14 -1.396684703340834e-14
lhumerus -28.398194045135007 3.299873466957632 79.53609909285099
lradius 19.270124303416097
lwrist 5.790495638137953
lhand -26.407048400986746 18.90722234301045
lfingers nan
lthumb 0.24783896177761178 48.83356753127861
rclavicle -2.3006219828673488e-14 -1.2598052847377493e-14
rhumerus -31.165369768176873 -18.73968892075193 -80.23678267464729
rradius 25.88631668592724
rwrist 7.436514388798043
rhand -16.345547455641313 nan
rfingers nan
rthumb 9.643231461368215 -8.855552020988345
85
root -0.06997468374703014 17.764071111058662 51.5244393340893 -3.975591661140082 -1.9263285451383931 -0.5817930601760641
lfemur -7.2288957478482345 -2.1801786007957915 -21.245525914381687
ltibia 59.92036456450961
lfoot -15.793467812241055 -2.0116637312353314
ltoes -6.34407210861294
rfemur -25.653370607786155 -2.675316459483018 25.48786903165558
rtibia 59.94338563647925
rfoot -10.89742537328194 -2.638140847116993
rtoes 12.94903552751072
lowerback nan -0.4379960573693678 -1.3868416579107035
upperback 0.35062052155115414 -0.2860029399076476 1.23556890217853
thorax -6.261585973284839 -0.26368159175278505 2.201832079849845
lowerneck -16.348603767714142 -2.542619595062166 -3.2251930588125477
upperneck 20.148337561376497 -2.741805528557081 2.380659768085313
head 8.982520485990992 -1.4502861264974578 0.9963020773963316
lclavicle 1.3583625859054475e-14 -1.5258005952192683e-14
lhumerus -26.95663963339356 1.554420508724875 79.66939623995339
lradius 21.240219666101936
lwrist 8.066312469617495
lhand -28.376349355967633 16.625376867305665
lfingers nan
lthumb -1.6676503362332789 46.52963530144188
rclavicle 1.3449497055724255e-14 -1.4065233656725819e-14
rhumerus -32.1568940862483 -19.245058719721094 -79.7419585484762
rradius 25.861235956061797
rwrist 7.969854425540911
rhand -16.72502560574234 nan
rfingers nan
rthumb 9.292676388481567 -9.234263681473506
